<svg xmlns="http://www.w3.org/2000/svg" width="21" height="26" viewBox="0 0 21 26" fill="none">
  <path d="M8.47059 1.58594L8.47059 9.05652C8.47059 12.1103 10.9462 14.5859 14 14.5859V14.5859M8.47059 1.58594L4 6.15627M8.47059 1.58594L12.9412 6.15627" stroke="#FFA318" stroke-width="1.62653" stroke-linecap="round" stroke-linejoin="round"/>
  <path d="M2.74219 15.375L4.94918 17.0916C5.54474 17.5548 6.27771 17.8063 7.0322 17.8063H16.4035" stroke="#949494" stroke-width="1.13095" stroke-linecap="round"/>
  <path d="M15.3633 24.4106V23.4844" stroke="#949494" stroke-width="1.58333" stroke-linecap="round"/>
  <path d="M6.10156 24.4106V23.4844" stroke="#949494" stroke-width="1.58333" stroke-linecap="round"/>
  <path d="M14.5508 7.73438H16.341C17.5902 7.73438 18.6029 8.74706 18.6029 9.99628V20.7546C18.6029 22.0038 17.5902 23.0165 16.341 23.0165H4.65643C3.40722 23.0165 2.39453 22.0038 2.39453 20.7546V10.8603" stroke="#949494" stroke-width="1.13095" stroke-linecap="round"/>
  <path d="M19.7739 15.6067C19.7739 15.8565 19.9765 16.0591 20.2263 16.0591C20.4761 16.0591 20.6787 15.8565 20.6787 15.6067H19.7739ZM18.6055 13.2805H19.0953V12.3757H18.6055V13.2805ZM19.7739 13.9591V15.6067H20.6787V13.9591H19.7739ZM19.0953 13.2805C19.4701 13.2805 19.7739 13.5843 19.7739 13.9591H20.6787C20.6787 13.0846 19.9698 12.3757 19.0953 12.3757V13.2805Z" fill="#949494"/>
  <path d="M1.22608 15.6067C1.22608 15.8565 1.02354 16.0591 0.773698 16.0591C0.523855 16.0591 0.321317 15.8565 0.321317 15.6067H1.22608ZM2.39453 13.2805H1.90465V12.3757H2.39453V13.2805ZM1.22608 13.9591V15.6067H0.321317V13.9591H1.22608ZM1.90465 13.2805C1.52989 13.2805 1.22608 13.5843 1.22608 13.9591H0.321317C0.321317 13.0846 1.0302 12.3757 1.90465 12.3757V13.2805Z" fill="#949494"/>
  <path d="M8.87891 20.4688H12.2363" stroke="#949494" stroke-width="1.13095" stroke-linecap="round"/>
  <circle cx="15.3598" cy="20.4731" r="0.92619" fill="#949494"/>
  <circle cx="6.09807" cy="20.4731" r="0.92619" fill="#949494"/>
</svg>