<svg xmlns="http://www.w3.org/2000/svg" width="21" height="26" viewBox="0 0 21 26" fill="none">
  <path d="M2.74609 15.1797L4.93118 16.8792C5.5408 17.3533 6.29107 17.6108 7.06338 17.6108H16.4065" stroke="#949494" stroke-width="1.15766" stroke-linecap="round"/>
  <path d="M15.3633 24.2074V23.2812" stroke="#949494" stroke-width="1.62072" stroke-linecap="round"/>
  <path d="M6.10156 24.2074V23.2812" stroke="#949494" stroke-width="1.62072" stroke-linecap="round"/>
  <path d="M14.4381 7.53906H16.2904C17.5691 7.53906 18.6057 8.57567 18.6057 9.85438V20.5048C18.6057 21.7836 17.5691 22.8202 16.2904 22.8202H4.71376C3.43504 22.8202 2.39844 21.7836 2.39844 20.5049V10.6647" stroke="#949494" stroke-width="1.15766" stroke-linecap="round"/>
  <path d="M19.7631 15.4112C19.7631 15.6669 19.9704 15.8743 20.2262 15.8743C20.4819 15.8743 20.6893 15.6669 20.6893 15.4112H19.7631ZM18.6055 13.0959H19.0685V12.1697H18.6055V13.0959ZM19.7631 13.7905V15.4112H20.6893V13.7905H19.7631ZM19.0685 13.0959C19.4521 13.0959 19.7631 13.4069 19.7631 13.7905H20.6893C20.6893 12.8954 19.9636 12.1697 19.0685 12.1697V13.0959Z" fill="#949494"/>
  <path d="M1.24078 15.4112C1.24078 15.6669 1.03346 15.8743 0.777714 15.8743C0.521971 15.8743 0.31465 15.6669 0.31465 15.4112H1.24078ZM2.39844 13.0959H1.93537V12.1697H2.39844V13.0959ZM1.24078 13.7905V15.4112H0.31465V13.7905H1.24078ZM1.93537 13.0959C1.55176 13.0959 1.24078 13.4069 1.24078 13.7905H0.31465C0.31465 12.8954 1.04027 12.1697 1.93537 12.1697V13.0959Z" fill="#949494"/>
  <path d="M8.88281 20.2734H12.24" stroke="#949494" stroke-width="1.15766" stroke-linecap="round"/>
  <circle cx="15.3636" cy="20.2777" r="0.926128" fill="#949494"/>
  <circle cx="6.10582" cy="20.2777" r="0.926128" fill="#949494"/>
  <path d="M10.5294 14.7969L10.5294 7.32629C10.5294 4.27248 8.05381 1.79688 5 1.79687V1.79687M10.5294 14.7969L15 10.2265M10.5294 14.7969L6.05882 10.2265" stroke="#3FCC6E" stroke-width="1.68588" stroke-linecap="round" stroke-linejoin="round"/>
</svg>